<?xml version="1.0" encoding="UTF-8" standalone="no"?>
<!DOCTYPE svg PUBLIC "-//W3C//DTD SVG 1.1//EN" "http://www.w3.org/Graphics/SVG/1.1/DTD/svg11.dtd">
<svg width="100%" height="100%" viewBox="0 0 2528 2486" version="1.1" xmlns="http://www.w3.org/2000/svg" xmlns:xlink="http://www.w3.org/1999/xlink" xml:space="preserve" xmlns:serif="http://www.serif.com/" style="fill-rule:evenodd;clip-rule:evenodd;stroke-linejoin:round;stroke-miterlimit:2;">
    <g transform="matrix(1,0,0,1,-493.500294,-453.574792)">
        <g transform="matrix(1,0,0,1,6,6)">
            <g transform="matrix(1,0,0,1,53.885396,-549)">
                <path d="M1365,1144C1408.949,1048.571 1642.378,986.22 1790,998C1937.622,1009.78 2090.111,1025.192 2171,1083C2251.889,1140.808 2165.233,1270.81 2208,1297C2250.767,1323.19 2298.62,1222.685 2379,1217C2459.38,1211.315 2517.515,1262.493 2562,1295C2606.485,1327.507 2573.406,1390.507 2597,1414C2620.594,1437.493 2722.274,1397.07 2823,1566C2923.726,1734.93 2932.367,1858.778 2919,1948C2905.633,2037.222 2843,2058 2843,2058C2843,2058 2908.891,2079.139 2935,2122C2961.109,2164.861 2963.085,2176.348 2961,2222C2958.915,2267.652 2920.535,2495.66 2885,2548C2849.465,2600.34 2764,2595 2764,2595C2764,2595 2942.515,2821.144 2726,3030C2664.217,3089.598 2605.29,3191.201 2533.078,3274.189C2460.867,3357.177 2193.904,3440.973 2151,3450C2090.965,3462.631 2071.427,3478.994 1995,3450C1918.573,3421.006 1881.572,3311.143 1861,3317C1840.428,3322.857 1855.721,3366.883 1823,3415C1790.279,3463.117 1736.699,3476.605 1628,3482C1519.301,3487.395 1144.312,3396.633 1084,3366C1023.688,3335.367 825.215,3253.908 751,3070C676.785,2886.092 769.977,2854.225 767,2830C764.023,2805.775 733.789,2817.17 685,2812C636.211,2806.83 499.197,2831.379 474,2624C448.803,2416.621 477.354,2442.979 469,2295C460.646,2147.021 440.462,2205.485 434,2061C427.538,1916.515 503.858,1846.467 553,1819C602.142,1791.533 679.729,1838.57 684,1814C688.271,1789.43 644.807,1789.582 624,1705C603.193,1620.418 612.268,1522.147 671,1459C729.732,1395.853 934.19,1250.847 1011,1220C1087.81,1189.153 1185.993,1205.118 1234,1221C1282.007,1236.882 1330.573,1358.773 1358,1359C1385.427,1359.227 1321.051,1239.429 1365,1144ZM2412.68,1905.453C2355.263,1809.595 2343.239,1804.214 2299.572,1780.587C2255.905,1756.96 2238.572,1774.967 2226.537,1789.367C2214.502,1803.766 2200.778,1835.954 2219.038,1860.002C2237.299,1884.049 2287.698,1931.156 2313.504,1976.48C2339.309,2021.804 2351.394,2110.201 2364.654,2131.267C2377.913,2152.334 2403.47,2167.457 2434.108,2154.529C2464.745,2141.602 2463.377,2109.928 2461.254,2086.031C2459.131,2062.133 2470.098,2001.312 2412.68,1905.453ZM1720.524,2461.428L1948.068,2711.888L1999.658,2622.531L1868.546,2478.269L2057.466,2522.404L2107.444,2435.84L1978.554,2292.706L2165.252,2335.714L2221.218,2238.778L1890.389,2166.916L1832.121,2267.841L1954.002,2401.553L1778.688,2360.388L1720.524,2461.132L1662.359,2360.388L1485.62,2399.085L1608.927,2267.841L1550.673,2166.942L1666.591,2166.942L1721.448,1994.533L1773.456,2166.942L1889.994,2166.942L1993.174,1844.505L1889.994,1844.505L1830.615,2030.183L1774.377,1844.505L1674.422,1844.505L1614.909,2027.694L1558.805,1844.505L1446.874,1844.505L1550.053,2166.942L1550.537,2166.942L1219.829,2238.778L1271.419,2328.134L1461.911,2286.719L1329.228,2428.261L1379.205,2514.825L1567.608,2474.771L1437.014,2614.952L1492.979,2711.888L1720.524,2461.428ZM1202,2863C1280.651,2942.37 1381.954,2989.486 1430,3002C1478.046,3014.514 1492.753,3004.857 1501,2988C1509.247,2971.143 1505.475,2939.99 1482,2921C1458.525,2902.01 1417.782,2898.379 1303,2804C1188.218,2709.621 1179.907,2644.29 1162,2627C1144.093,2609.71 1115.663,2601.129 1089,2621C1062.337,2640.871 1071.23,2671.301 1079,2694C1086.77,2716.699 1123.349,2783.63 1202,2863ZM1670.905,1527.217C1577.058,1530.369 1568.009,1537.02 1532.199,1559.509C1496.388,1581.997 1501.937,1602.09 1507.159,1616.814C1512.38,1631.538 1529.713,1654.757 1554.913,1651.13C1580.113,1647.502 1635.761,1629.634 1679.556,1629.132C1723.352,1628.629 1792.338,1655.781 1813.238,1654.617C1834.138,1653.452 1856.031,1640.818 1859.864,1613.01C1863.696,1585.202 1840.25,1573.294 1822.092,1565.112C1803.933,1556.93 1764.751,1524.064 1670.905,1527.217ZM1195.364,1736.583C1132.458,1797.066 1130.293,1807.324 1119.368,1845.248C1108.442,1883.172 1124.622,1893.739 1137.277,1900.764C1149.932,1907.789 1176.176,1913.218 1191.358,1895.037C1206.541,1876.857 1234.012,1829.835 1263.964,1802.285C1293.916,1774.734 1358.265,1750.825 1371.99,1737.033C1385.715,1723.241 1393.079,1700.832 1378.641,1679.059C1364.202,1657.286 1340.685,1663.542 1323.111,1669.114C1305.537,1674.686 1258.27,1676.1 1195.364,1736.583ZM2470.315,2526.308C2486.604,2446.398 2482.835,2437.318 2471.144,2402.214C2459.453,2367.11 2441.43,2367.442 2427.989,2368.661C2414.549,2369.88 2391.517,2379.483 2389.482,2401.543C2387.448,2423.603 2391.248,2474.453 2382.832,2511.535C2374.415,2548.618 2337.65,2600.976 2334.412,2618.872C2331.173,2636.769 2337.383,2657.989 2360.003,2667.248C2382.623,2676.507 2397.374,2659.293 2407.921,2645.736C2418.469,2632.178 2454.026,2606.219 2470.315,2526.308ZM1872.519,2936.013C1850.446,2939.63 1831.076,2938.914 1813,2940.422C1794.923,2941.93 1789.271,2957.717 1785.07,2979.653C1780.869,3001.588 1808.203,3017.945 1825.094,3021.723C1841.984,3025.501 1870.417,3022.913 1886.779,3013.318C1903.14,3003.723 1910.308,2993.898 1908.078,2972.485C1905.848,2951.073 1894.592,2932.395 1872.519,2936.013ZM1046.666,2394.91C1043.382,2376.052 1044.387,2359.482 1043.15,2344.031C1041.914,2328.58 1026.223,2323.837 1004.367,2320.37C982.511,2316.904 965.757,2340.376 961.73,2354.843C957.702,2369.311 959.863,2393.613 969.206,2407.551C978.549,2421.489 988.26,2427.562 1009.69,2425.532C1031.119,2423.501 1049.951,2413.767 1046.666,2394.91ZM1085.317,2183.615C1093.085,2155.134 1103.71,2131.884 1111.496,2109.211C1119.281,2086.539 1106.721,2072.588 1087.396,2057.648C1068.071,2042.709 1038.05,2068.643 1025.696,2087.504C1013.343,2106.365 1001.309,2142.125 1002.32,2166.333C1003.331,2190.541 1009.279,2203.666 1031.387,2210.545C1053.494,2217.425 1077.549,2212.096 1085.317,2183.615ZM1962.463,1701.462C1990.966,1709.149 2014.245,1719.709 2036.94,1727.43C2059.634,1735.151 2073.55,1722.551 2088.434,1703.184C2103.319,1683.817 2077.3,1653.869 2058.404,1641.569C2039.508,1629.269 2003.715,1617.337 1979.51,1618.416C1955.304,1619.496 1942.197,1625.481 1935.38,1647.608C1928.563,1669.735 1933.96,1693.774 1962.463,1701.462ZM2183.02,2775.137C2162.236,2796.103 2141.541,2811.108 2123.602,2827.009C2105.662,2842.91 2109.727,2861.237 2119.192,2883.755C2128.657,2906.273 2167.556,2898.48 2187.594,2888.146C2207.633,2877.811 2235.713,2852.611 2246.752,2831.042C2257.79,2809.473 2259.075,2795.122 2243.22,2778.249C2227.364,2761.376 2203.804,2754.172 2183.02,2775.137Z" style="fill:rgb(254,211,124);"/>
            </g>
        </g>
    </g>
</svg>
